<?xml version="1.0" encoding="UTF-8" standalone="no"?>
<svg xmlns:rdf="http://www.w3.org/1999/02/22-rdf-syntax-ns#" xmlns="http://www.w3.org/2000/svg" xml:space="preserve" height="295.76" viewBox="0 0 294.38656 295.75531" width="294.39" version="1.1" xmlns:cc="http://creativecommons.org/ns#" xmlns:dc="http://purl.org/dc/elements/1.1/"><g transform="matrix(1.25 0 0 -1.25 -349.67 598.31)"><g transform="matrix(.75 0 0 .75 101.15 91.296)"><path d="m228.91 19.803c-29.578 0-60.438 4.3098-91.721 12.809-25.439 6.9088-43.539 15.783-43.719 15.873l-1.4863 0.73438 10.115 12-2.9141 14.146c1.9687 0.7525 6.2428 2.3442 11.945 4.1992l0.22461-1.0742 4.5879-22.258-2.8633-3.1172c4.4288-1.59 16.709-5.8025 33.527-9.9688 19.552-4.845 49.415-10.619 80.645-10.619 53.382 0 100.91 16.152 108.46 18.844l-12.84 62.758h-60.742l6.3359-31.035h-115.55l13.07 7.8242c-0.02-0.0025-0.0405-0.0048-0.0605-0.0098l0.0586 0.01172 1.4336 1.4102c6.4062 1.2225 11.671 2.3533 14.836 3.4883h70.586l-5.0879 25.854 0.75 0.47656c2.2462 1.4275 4.4778 2.9291 6.6328 4.4629l0.33789 0.24023h77.609l17.188-83.947-2.4824-1.0742c-0.50875-0.22-53.971-22.027-118.88-22.027zm-182.52 37-0.54492 3.668 0.13867 0.65234c1.8312 8.5262 7.7941 17.82 16.789 26.174 7.4912 6.9575 16.638 12.862 26.199 16.965-26.379-4.418-41.169-14.191-49.042-21.869l-2.9316-2.8555 0.75781 4.0195c6.2788 33.328 33.756 47.378 34.029 47.504l0.29688 0.0957c4.9675 0.96125 10.701 1.4473 17.041 1.4473 2.1212 0 4.2848-0.0546 6.4785-0.16211-5.9075 1.4838-13.303 2.7676-21.209 2.7676-8.3438 0-15.927-1.4407-22.541-4.2832l-2.5645-1.0098 0.82617 3.1426c4.5438 8.78 12.486 15.596 18.35 19.77 6.1475 4.3738 13.023 7.9776 19.07 10.018-3.8412 2.7362-10.28 7.6302-10.799 8.0039l3.2266 4.3027s5.8645-3.1191 21.627-6.1328c15.761-3.0112 26.455-3.6797 26.455-3.6797s1.1815 0.11188 1.3965-0.14062c12.254-14.364 33.743-24.281 51.012-20.805 0.285-0.17125 0.91235-0.39797 1.0274-0.51172-2.28-3.4212-16.358-8.0377-20.52-7.4102 0 0 1.7813-0.48148 2.4238-0.64648 5.1838-1.33 11.988-3.2627 20.688-3.209 5.3912 0.0662 10.127 0.0153 15.779 1.0078 8.5338 1.5875 15.856 3.59 21.096 5.6875 3.7762 1.5462 13.027 6.2776 16.607 8.3476 7.845 4.6562 20.389 13.281 29.369 22.879 12.101 4.085 20.593 4.5573 23.047 4.541 2.4525-0.0187 3.3457-0.43554 3.3457-0.43554l-0.91211-1.8457c-5.025-10.159-22.96-28.021-35.037-36.609-14.934-10.618-28.906-17.941-43.975-23.041-14.012-4.745-29.731-7.8713-50.969-10.143-34.64-3.696-54.98-6.734-70.09-13.062-13.865-5.808-23.319-11.036-31.612-17.493-7.521-5.852-12.291-12.394-12.338-12.461l-2.0059-3.1816zm148.2 105.87c-2.8075 2.23-4.7983 5.2402-5.5508 8.7402-1.9638 9.145 4.8346 18.785 15.475 21.949l0.5332 0.1582 1.0117-2.166-0.46484-0.3086c-5.3712-3.5638-8.0638-9.4702-6.8613-15.053 0.245-1.14 0.65047-2.233 1.1992-3.248 0 0 1.0545-1.7662 2.332-3.0449 0.40125-0.40125 0.88578-0.78359 1.3633-1.1211l-9.0371-5.9062zm-123.89 50.93-23.834 115.65l-15.93 12.184 1.6875 0.97461c0.1175 0.0662 12.047 6.8994 27.943 12.391 22.182 7.6625 57.07 16.795 97.301 16.795 63.678 0 127-21.729 127.6-21.947l1.7559-0.63867 17.25-84.164h-86.375l-6.2988 30.738h-71.066l1.8223-8.8262c-4.0112-1.8025-7.8844-3.769-11.596-5.834l-0.3125 1.4004h0.004l-3.2363 15.688-16.283 7.834 0.5625 2.4668h110.32l6.3008-30.742h60.738l-12.771 62.293c-6.8975 2.1662-62.251 19.012-116.75 19.012-31.235 0-58.847-5.8118-76.51-10.686-14.594-4.03-24.958-8.0856-29.102-9.8106l4.5918-3.5605 22.818-110.67c0.0012 0.001 0.0034 0.005 0.0059 0.006l0.28516-1.3574c-4.7262-4.3-8.8562-7.5946-10.92-9.1934z" transform="matrix(.8 0 0 -.8 240.01 514.91)" fill="#005daa"/><path d="m46.131 58.133-0.14062 2.9883c3.4525 16.075 21.114 33.452 42.027 42.717 2.0838 0.92375 9.1896 2.486 13.287 3.291 0.56625 0.14625 1.1337 0.28742 1.7012 0.41992 18.476 4.2975 34.554 5.2898 47.441 4.7598-4.8675 2.3925-10.46 5.3387-15.281 8.3887l0.23242 0.24414s36.067-12.24 74.963-0.24219c0.115 0.0363 0.22148 0.0685 0.33398 0.10351 0.47875 0.155 0.96063 0.31336 1.4531 0.47461 34.805 11.4 58.306 32.696 72.023 49.492 0.57249 0.77125 1.6038 1.8906 2.5488 2.1719 1.4012 0.41875 2.7059 0.76148 3.8984 1.0215l2.7344 0.5957-1.3164-2.4668c-2.525-4.7288-7.7781-11.294-14.797-18.486-6.6562-6.8225-13.902-13.17-19.875-17.418-14.935-10.618-28.904-17.941-43.973-23.041-14.014-4.745-29.735-7.8713-50.973-10.143-34.62-3.696-54.96-6.734-70.072-13.062-13.865-5.808-23.317-11.036-31.61-17.493-7.506-5.841-12.29-12.396-12.338-12.461l-2.269-1.851zm152.36 107.62s-0.18953 0.2914-0.36328 0.53515c-2.105 1.895-3.6177 4.3681-4.2402 7.2656-1.5638 7.3188 3.0364 14.91 10.598 18.299 0.0175 0.0112 0.18828 0.061 0.20703 0.0723l0.16406-0.60351c-5.3212-3.7312-7.9739-9.8011-6.7539-15.465 0.25875-1.2012 0.68367-2.3519 1.2637-3.4219l0.1582-0.28907-0.14453-0.29882c-0.32875-0.68-0.4793-1.4268-0.43555-2.1543 0.0525-0.81625 0.34391-1.5885 0.84766-2.2285l0.42773-0.54882-0.57812-0.38672c-0.39375-0.26375-0.77789-0.52414-1.1504-0.77539z" transform="matrix(.8 0 0 -.8 240.01 514.91)" fill="#6caddf"/><path d="m227.26 31.295c-31.37 0-61.352 5.7991-80.98 10.664-20.38 5.0525-34.114 10.168-35.348 10.633l3.6836 4.0098-4.6836 22.717c15.655 5.2188 34.129 9.4812 54.906 12.67 1.9875 0.30375 4.0562 0.6407 6.1562 1.002l0.0937-0.45898-13.701-8.2031h109.57l-6.334 31.035h63.26l13.254-64.787c-0.9125-0.34-13.592-5.0146-32.85-9.6309-18.368-4.4025-46.639-9.6504-77.031-9.6504zm-47.52 102.18c-4.9362 0-9.2702 0.97414-12.646 1.4004-2.6762 0.4175-7.3442 1.9761-7.3867 1.9961-0.004 0-0.008 0.002-0.0117 0.002 10.6 1.5325 18.303 5.3045 19.262 6.1582-19.12-2.7588-40.151 9.0229-50.326 21.463 0.17625 0.51875 0.0762 1.291 0.0762 1.291 5.0575-0.30125 10.248-0.45508 15.43-0.45508 6.6462 0 13.462 0.25305 20.252 0.74805 5.5938 0.40625 11.6 1.0659 17.85 1.9609l1.0938 0.15625 0.32227-1.0586c0.2275-0.74375 0.49898-1.4788 0.80273-2.1875 0.93625-2.1675 2.2748-4.1359 3.9785-5.8496l0.86133-0.86719-5.3145-5.9062c9.8575 5.7262 31.651 17.359 56.16 23.9 6.4175 1.7125 12.671 2.9757 18.586 3.752l2.3926 0.31446-1.0644-2.166c-5.91-12.021-17.043-23.51-30.549-31.525-3.5362-2.045-7.3082-3.8936-11.221-5.4961-6.595-2.6388-13.682-4.6731-21.064-6.0469-5.595-0.9825-11.268-1.5133-16.863-1.582-0.20875-0.001-0.41415-0.002-0.61915-0.002zm20.475 32.668c-0.0738-0.05-0.56375 0.44829-0.9375 0.92579-0.56125 0.71625-0.92047 1.6004-0.98046 2.5879-0.055 0.8725 0.13304 1.7159 0.49804 2.4746 0.31375 0.90625 1.3234 3.3527 1.8359 3.6152 0.7175 0.3675 1.5062 0.60781 2.3262 0.69531 0.23875 0.0263 0.48266 0.041 0.72266 0.041 2.3262 0 4.4191-1.2443 5.4629-3.248l0.56054-1.0742-1.0371-0.6289c-2.7388-1.6625-5.5824-3.4737-8.4512-5.3887zm-27.875 6.7598c-13.988 0-40.6 3.1848-61.693 24.51l-0.39453 0.39648 1.4512 1.9121 0.49024-0.27344c1.91-1.0638 4.446-2.1905 7.1973-3.1992 1.3938 3.5638 4.9963 11.41 12.049 18.957 8.765 9.3813 19.84 15.271 32.941 17.535-7.4775 2.8238-12.889 2.9121-13.531 2.9121l-0.10938-0.002-1.459-0.0352 0.13867 1.4512c0.02 0.2175 0.55203 5.3986 4.6758 14.09 3.7612 7.93 11.39 20.46 26.369 35.117l3.1719 3.1055-1.0117-4.3242c-1.1388-4.8625-0.0792-13.15 2.5195-19.705 5.3438-13.488 16.194-25.033 31.375-33.395 15.562-8.5712 35.49-13.666 57.629-14.732l1.9336-0.0937-0.82617-1.75c-3.3538-7.0938-11.403-17.394-30.699-26.182-2.3025-1.0488-4.7348-2.0609-7.2285-3.0059l-0.93359-0.35547-0.57812 0.8125c-4.9062 6.87-15.152 11.67-24.92 11.67-3.7238 0-7.2333-0.67672-10.426-2.0117-10.368-4.3388-16.961-12.452-17.645-21.703l-0.0781-1.0566-1.0547-0.1289c-1.5688-0.1925-4.8735-0.51563-9.3535-0.51563zm-91.785 48.887-23.16 112.33-5.8906 4.5684c1.1862 0.5275 12.896 5.638 31.189 10.686 17.736 4.8975 45.463 10.732 76.836 10.732 57.575 0 116.06-18.724 117.81-19.289l13.219-64.482h-63.256l-6.3008 30.738h-109.31l-0.0273-0.1211 16.832-8.0957 3.5371-17.143c-25.259-15.125-39.976-29.362-45.131-34.783l-0.13281-0.13867 0.19141 0.0312c2.5675 0.425 6.3631 0.93359 9.8594 0.93359 1.4225 0 2.7008-0.0884 3.8008-0.25586l1.8691-0.28711-1.0176-1.5957c-2.3125-3.6212-8.9769-13.186-20.922-23.832z" transform="matrix(.8 0 0 -.8 240.01 514.91)" fill="#fff"/><path d="m539.53 334.4s-2.357 2.263-2.46 2.351c-2.362 2.197-5.618 4.577-9.664 7.068-16.665 10.786-38.9 19.863-47.847 23.324l-1.638 2.313-0.29 0.405s-5.682-0.173-12.595-2.74h-0.003l-0.272-0.102c-0.013-0.006-0.024-0.01-0.038-0.015l-3.022-1.139 0.125-0.032c-6.221-2.704-10.79-6.638-10.79-6.638l52.543-15.189c-8.649 1.179-35.144 5.459-35.144 5.459l9.552-10.441s20.939-2.2 54.032-4.184c1.12-0.068 7.511-0.44 7.511-0.44" fill="#7e8083"/><path d="m227.26 31.23c-60.741 0-116.44 21.334-116.44 21.334l3.7266 4.0566-4.6875 22.74c1.2675 0.4225 2.5593 0.84016 3.873 1.2539l5.1973-25.209-0.97266-1.0645c15.602-5.2662 61.112-19.062 109.3-19.062 48.919 0 93.654 13.708 105.29 17.846l-11.91 58.25h-55.123l6.334-31.031h-128.88l18.742 11.217c1.9212 0.34 9.334 1.5039 9.334 1.5039l0.11718-0.56641-13.541-8.1055h109.26l-6.332 31.035h63.389l13.277-64.893s-51.106-19.305-109.96-19.305zm-47.52 102.24c-2.4562 0-7.241 0.30507-9.8223 0.76757-6.2938 1.13-9.5002 2.3766-10.223 2.6328 53.082-1.5462 76.191 25.304 80.781 38.104 0.54875 1.15 1.6092 1.7574 2.5742 1.9961 5.3975 1.335 10.659 2.3452 15.678 3.0039l2.3926 0.3125-1.0644-2.1641c-5.9112-12.021-17.044-23.51-30.549-31.525-3.5362-2.0425-7.3082-3.8911-11.221-5.4961-6.595-2.6388-13.678-4.6731-21.064-6.0469-5.595-0.98125-11.267-1.5133-16.863-1.582-0.20751-0.001-0.4154-0.002-0.61915-0.002zm116.38 47.8c-1.3275 0-6.352 0.26133-15.238 3.6113l-1.7715 0.62696s1.5703 0.37953 2.2266 0.58203c26.756 7.0925 68.684 27.131 89.139 38.023 3.3938 1.8375 3.9121 1.5215 3.9121 1.5215l-2.5254-2.4238s-0.41938-0.40367-0.54688-0.51367c-2.9538-2.7462-7.0245-5.7202-12.082-8.834-20.831-13.484-48.624-24.83-59.807-29.156l-2.0488-2.8906-0.36328-0.50586-0.62109-0.0332s-0.0897-0.008-0.27344-0.008zm-51.568 7.9297s-0.57141 0.42078-0.53516 1.1758c0.30375 19.185-31.111 38.03-58.246 37.652 0 0 9.4526-3.1676 15.455-8.3613-7.1075 3.2012-58.59 6.8756-71.674-27.609-3.255 0.63125-6.4791 1.5395-9.4004 2.5508-0.41125 0.1425-1.0241 0.96406-0.90039 1.2891 2.6338 6.9125 14.079 31.473 45.127 36.846-7.4788 2.825-12.892 2.9121-13.533 2.9121l-0.10938-0.002-1.459-0.0371 0.13867 1.4531c0.0213 0.21625 0.55008 5.3986 4.6738 14.09 3.7625 7.93 11.392 20.458 26.369 35.117l3.1738 3.1055-1.0117-4.3242c-1.1388-4.8625-0.0792-13.15 2.5195-19.705 5.3438-13.488 16.192-25.033 31.375-33.395 15.562-8.5712 35.49-13.666 57.629-14.732l1.9316-0.0937-0.82617-1.75c-3.3538-7.0938-11.401-17.395-30.697-26.182zm-164.04 32.465-23.178 112.42-5.959 4.623s47.405 21.465 108.15 21.465c58.848 0 117.87-19.307 117.87-19.307l13.244-64.594h-63.391l-6.2988 30.74h-109.26l16.859-8.1094 3.5566-17.217c-1.375-0.8225-3.434-2.0802-3.6777-2.2402l-3.4414 16.676-31.076 14.939h130.34l6.3027-30.74h55.119l-11.773 57.426c-10.888 3.465-63.29 18.377-114.38 18.377-46.249 0-85.348-12.881-100.13-18.514l1.5938-1.209 22.992-111.54c-0.8225-0.7275-2.7559-2.4863-3.4746-3.2051zm238.39 113.93v0.69922h1.6582v4.7578h0.82422v-4.7578h1.6719v-0.69922h-4.1543zm4.7715 0-0.42579 5.457h0.79493l0.20507-3.291c0.0275-0.4925 0.0156-0.95727 0.0293-1.4785h0.041c0.12375 0.50625 0.26093 1.041 0.39843 1.4785l1.1094 3.2227h0.63086l1.1387-3.1387c0.165-0.48 0.32859-1.0562 0.46484-1.5625h0.043c0.0138 0.53375-0.0126 1.0535 0.0137 1.4785l0.21875 3.291h0.83594l-0.41015-5.457h-1.0703l-1.0703 2.9473c-0.13625 0.39875-0.25906 0.87797-0.38281 1.3867h-0.0274c-0.1375-0.50875-0.24726-0.95985-0.38476-1.3711l-1.0684-2.9629h-1.084z" transform="matrix(.8 0 0 -.8 240.01 514.91)" fill="#c8c8c8"/><path d="m536.4 335.62c-0.896 0.052-3.107 0.181-4.317 0.253-33.379 2.002-53.597 4.14-53.597 4.14l-7.229 7.901c18.203-3.246 42.164-6.246 42.164-6.246l-0.318 0.663-59.955 17.331s3.662 3.182 11.402 6.174c0.183 0.07 0.361 0.136 0.539 0.203 8.008 3.019 11.992 2.819 11.992 2.819l1.816-2.565c9.667-3.728 31.482-12.684 47.948-23.34 3.79-2.334 7.072-4.678 9.524-6.957 0.113-0.1 0.424-0.4 0.424-0.4s-0.147 0.009-0.393 0.024m-149.23-32.608c-2.034-5.133-3.063-12.098-2.06-16.382-22.986 22.491-24.53 38.725-24.53 38.725s6.314-0.173 14.771 3.878c-28.185 2.928-37.53 25.243-39.21 29.993-2.749-0.953-5.162-2.02-6.874-2.972 21.715 21.951 50.79 19.531 55.978 18.896 0.538-7.301 5.646-14.429 14.75-18.238 10.696-4.475 24.122 0.527 29.516 8.08 2.037-0.775 3.941-1.57 5.721-2.381 15.397-7.011 21.578-15.211 24.054-20.446-36.789-1.774-63.314-16.945-72.116-39.153m81.723-66.532-0.858-0.312c-0.487-0.179-51.19-17.498-101.72-17.498-32.013 0-59.779 7.258-77.502 13.38-12.77 4.412-22.175 9.832-22.175 9.832l11.814 9.038 18.802 91.232c11.422-8.72 19.202-18.141 23.115-24.27-5.058-0.779-13.353 1.058-13.353 1.058l-0.094-0.158s14.224-17.144 45.839-34.46l-1.428-6.917h58.975l5.039 24.59h66.981l-13.43-65.515zm-65.293 124.95c0.106-0.074 0.212-0.145 0.319-0.217-7.944 2.363-13.127 9.535-11.664 16.353 0.527 2.442 1.836 4.516 3.67 6.098 0.748-0.524 1.619-1.126 2.589-1.784 0.299-0.202 0.607-0.409 0.924-0.621 2.027-1.358 4.412-2.901 6.976-4.455-0.709-1.359-2.226-2.204-3.922-2.017-1.533 0.163-2.819 1.132-3.441 2.422-0.481-0.883-0.841-1.846-1.062-2.874-1.051-4.882 1.322-9.899 5.611-12.905m-105.72 49.573c-1.445 0.668-21.859 11.875-26.64 37.256 12.924-12.602 33.017-17.544 49.823-19.051-20.598 5.304-39.982 21.846-43.243 37.023l0.081 0.089s3.848-5.336 10.073-10.179c6.501-5.061 13.984-9.3 25.523-14.132 12.62-5.286 29.932-7.704 56.348-10.528 31.437-3.361 51.557-9.36 75.465-26.36 9.647-6.86 23.24-20.527 27.426-28.37-1.467 0.321-3.239 0.817-5.38 1.545-1.047 0.357-2.181 0.769-3.411 1.244-12.722 4.91-21.942 11.07-30.27 16.677-6.694 4.513-18.233 10.582-35.049 12.82-18.369 2.446-30.76-3.58-30.841-3.621h-0.002s0.008 0.001 0.019 0.004c0.099 0.026 0.634 0.158 1.543 0.338 2.541 0.505 7.994 1.384 14.954 1.341 3.917-0.023 8.311-0.34 12.935-1.179 0.129-0.023 0.254-0.048 0.383-0.073 6.826-1.269 12.454-3.1 16.646-4.779 5.56-2.223 8.605-4.176 8.594-4.182 0.083-0.049 0.167-0.1 0.251-0.149 8.759-5.198 18.595-13.728 24.029-24.781-4.965 0.652-9.916 1.688-14.737 2.974-26.206 6.994-48.578 21.364-48.578 21.364l-0.489-0.486 6.702-7.444c-1.418-1.424-2.578-3.096-3.4-5.001-0.264-0.612-0.49-1.233-0.681-1.857-4.865 0.696-9.671 1.236-14.349 1.577-10.627 0.774-20.223 0.738-28.682 0.235-18.227-1.086-31.16-4.346-37.677-6.366l-0.612 0.786c5.208 3.219 13.312 8.774 21.487 16.528 0.001 0.001-11.293-6.304-17.502-8.011-9.526 3.69-22.18 12.229-27.592 22.687 0.006 0.047 0.046 0.212 0.065 0.281 20.388-8.765 44.781 1.642 44.781 1.642s-15.168-2.341-27.993 0.138m17.377 64.19s14.299 7.062 34.788 12.628c19.148 5.201 44.908 10.209 73.106 10.209 51.477 0 94.283-17.362 94.689-17.536l1.211-0.524-13.411-65.5h-59.137c-2.242 1.635-4.543 3.197-6.909 4.691l3.962 20.135h-55.354c-5.18 1.143-10.565 2.142-16.167 3.001-21.665 3.324-38.395 7.801-51.488 12.887l2.273 11.037-7.563 8.972zm205.23-121.11c-14.823 8.257-26.624 14.731-33.979 18.552-0.751 1.412-1.761 3.153-3.087 5.144-1.155 0.16-2.317 0.262-3.411 0.323-2.691 5.022-9.486 13.59-13.224 17.833-0.94 1.066-1.895 2.112-2.862 3.139h54.074l17.814 87.201s-6.006 4.881-21.118 11.013c-17.572 7.131-48.306 16.134-89.55 16.134-22.599 0-57.117-2.537-93.219-14.629-24.86-8.019-42.134-19.693-42.134-19.693l14.061-16.111c-20.102 11.319-27.71 24.073-33.817 33.649 0 0-5.969-7.752-8.108-22.367-0.877-5.996-1.258-11.058-1.012-15.718-7.774 5.66-10.58 11.121-10.58 11.121s-7.098-33.02 9.062-53.412c-3.702 0.715-8.013 2.149-13.023 4.613 0 0 2.118-17.326 22.413-30.468-13.106-11.186-21.773-21.551-24.388-27.07 15.16-1.526 28.253-6.246 39.18-12.26l-19.097-92.642-23.325-18.496s14.96-12.856 38.607-21.54c18.082-6.896 47.425-15.116 84.555-15.116 55.202 0 112.49 22.513 114.81 23.472l3.583 1.478 18.282 89.155h-80.226c11.62 4.707 27.071 7.949 46.493 9.359 21.062 1.37 62.638 0.125 70.635 0.379 9.784 0.313 11.941 3.059 11.941 3.059s-2.977 9.204-29.349 23.898" fill="#00245d"/></g></g></svg>
