<?xml version="1.0" encoding="UTF-8"?>
<svg id="Layer_1" xmlns="http://www.w3.org/2000/svg" xmlns:xlink="http://www.w3.org/1999/xlink" version="1.1" viewBox="0 0 1834.18 374.37">
  <!-- Generator: Adobe Illustrator 29.6.1, SVG Export Plug-In . SVG Version: 2.1.1 Build 9)  -->
  <defs>
    <style>
      .st0, .st1 {
        fill: none;
      }

      .st2 {
        letter-spacing: -.05em;
      }

      .st2, .st3, .st4, .st5, .st6 {
        isolation: isolate;
      }

      .st2, .st4, .st7, .st5, .st6 {
        fill: #fff;
      }

      .st2, .st4, .st5, .st6 {
        font-family: AcuminProCond-Semibold, 'Acumin Pro Condensed';
        font-size: 185.29px;
        font-weight: 600;
      }

      .st1 {
        stroke: #fff;
        stroke-miterlimit: 10;
      }

      .st8 {
        fill: url(#linear-gradient);
      }

      .st5 {
        letter-spacing: 0em;
      }

      .st9 {
        clip-path: url(#clippath);
      }

      .st6 {
        letter-spacing: .02em;
      }
    </style>
    <clipPath id="clippath">
      <path class="st0" d="M.41,31.38h51.14l66.74,186.33V31.38h51.63v336.8h-51.63L51.92,183.25v184.93H.41V31.38ZM283.07,368.93s.48-14.07.48-41.71v-53.35c0-31.53-10.47-43.17-34.27-43.17h-18.09v138.23h-52.36V29.4h79.01c54.26,0,77.59,25.71,77.59,78.09v26.68c0,34.92-10.95,57.23-34.27,68.39v.97c26.18,11.15,34.75,36.38,34.75,71.78v52.38c0,16.49.23,41.23.23,41.23h-53.07ZM231.19,77.91v104.28h20.47c19.52,0,31.42-8.73,31.42-35.89v-33.47c0-24.25-8.09-34.92-26.66-34.92h-25.23ZM499.16,113.32v44.14c0,54.32-25.7,83.91-78.06,83.91h-24.75v127.56h-52.36V29.4h77.11c52.36,0,78.06,29.59,78.06,83.91h0ZM396.35,77.91v114.95h24.75c16.66,0,25.7-7.76,25.7-32.01v-50.93c0-24.25-9.04-32.01-25.7-32.01h-24.75Z"/>
    </clipPath>
    <linearGradient id="linear-gradient" x1="-251.59" y1="176.83" x2="768.89" y2="176.83" gradientTransform="translate(0 376) scale(1 -1)" gradientUnits="userSpaceOnUse">
      <stop offset=".04" stop-color="#3c51a1"/>
      <stop offset=".4" stop-color="#59c1dc"/>
      <stop offset=".47" stop-color="#56c0d8"/>
      <stop offset=".54" stop-color="#4dbecd"/>
      <stop offset=".59" stop-color="#3ebbbb"/>
      <stop offset=".65" stop-color="#29b6a2"/>
      <stop offset=".7" stop-color="#0fb181"/>
      <stop offset=".73" stop-color="#00ae6f"/>
    </linearGradient>
  </defs>
  <g class="st9">
    <rect class="st8" x="-251.59" y="-66.92" width="1020.48" height="532.18"/>
  </g>
  <g id="Descriptor">
    <path class="st7" d="M554.34,303.3v68.91h-33.98v-195.77h59.49c12.21,0,22.78,1.53,31.7,4.6,8.93,3.07,16.29,7.36,22.11,12.86,5.81,5.51,10.1,12.09,12.88,19.77,2.78,7.67,4.17,16.07,4.17,25.18s-1.47,18.16-4.42,26.06-7.37,14.69-13.26,20.37c-5.9,5.69-13.26,10.11-22.11,13.27-8.84,3.16-19.2,4.74-31.07,4.74h-25.52.01ZM554.34,274.87h25.52c6.23,0,11.66-.83,16.29-2.51,4.63-1.67,8.46-4.06,11.49-7.17,3.03-3.11,5.31-6.9,6.82-11.37,1.52-4.47,2.27-9.45,2.27-14.96s-.76-9.97-2.27-14.22c-1.52-4.24-3.79-7.85-6.82-10.83s-6.86-5.26-11.49-6.84-10.06-2.37-16.29-2.37h-25.52v70.26h0Z"/>
    <path class="st7" d="M711.09,342.15h73.13v30.05h-107.11v-195.76h33.98v165.71h0Z"/>
    <path class="st7" d="M968.25,372.21h-26.27c-2.95,0-5.37-.79-7.26-2.37s-3.26-3.54-4.1-5.89l-13.64-39.94h-75.66l-13.64,39.94c-.68,2.08-2,3.97-3.98,5.69s-4.4,2.57-7.26,2.57h-26.4l71.74-195.76h34.73l71.74,195.76h0ZM850.03,298.29h58.23l-22.23-65.12c-1.01-2.89-2.13-6.3-3.35-10.22s-2.42-8.19-3.6-12.79c-1.18,4.6-2.34,8.89-3.47,12.86-1.14,3.97-2.25,7.45-3.35,10.42l-22.23,64.85h0Z"/>
    <path class="st7" d="M1097.21,176.44v29.92h-54.94v165.84h-33.98v-165.84h-55.2v-29.92h144.12Z"/>
    <path class="st7" d="M1233.99,176.44v28.97h-80.96v57.94h68.33v29.11h-68.33v79.74h-34.23v-195.76h115.19Z"/>
    <path class="st7" d="M1435.83,274.32c0,14.35-2.23,27.64-6.7,39.87-4.46,12.23-10.74,22.81-18.82,31.75s-17.81,15.91-29.18,20.92-23.96,7.51-37.76,7.51-26.42-2.5-37.83-7.51c-11.41-5.01-21.18-11.98-29.3-20.92-8.13-8.94-14.42-19.51-18.88-31.75-4.46-12.23-6.7-25.52-6.7-39.87s2.23-27.64,6.7-39.87c4.46-12.23,10.76-22.81,18.88-31.75,8.13-8.94,17.89-15.91,29.3-20.92s24.02-7.51,37.83-7.51,26.4,2.53,37.76,7.58c11.37,5.05,21.1,12.03,29.18,20.92,8.08,8.89,14.35,19.45,18.82,31.68,4.46,12.23,6.7,25.52,6.7,39.87ZM1400.97,274.32c0-10.74-1.33-20.37-3.98-28.9s-6.46-15.77-11.43-21.73c-4.97-5.96-11.01-10.51-18.12-13.68-7.12-3.16-15.14-4.74-24.06-4.74s-16.97,1.58-24.13,4.74-13.24,7.72-18.25,13.68c-5.01,5.96-8.86,13.2-11.56,21.73-2.7,8.53-4.04,18.16-4.04,28.9s1.34,20.37,4.04,28.9c2.7,8.53,6.55,15.75,11.56,21.66s11.09,10.45,18.25,13.61c7.16,3.16,15.2,4.74,24.13,4.74s16.95-1.58,24.06-4.74c7.11-3.16,13.15-7.69,18.12-13.61,4.97-5.91,8.78-13.13,11.43-21.66s3.98-18.16,3.98-28.9Z"/>
    <path class="st7" d="M1497.71,295.71v76.49h-33.98v-195.76h55.7c12.46,0,23.13,1.38,32.02,4.13,8.88,2.75,16.17,6.61,21.85,11.57,5.69,4.96,9.85,10.9,12.5,17.8,2.65,6.91,3.98,14.51,3.98,22.81,0,6.59-.91,12.82-2.72,18.68-1.81,5.87-4.42,11.19-7.83,15.98-3.41,4.79-7.62,8.98-12.63,12.59s-10.72,6.5-17.12,8.66c4.29,2.62,8,6.36,11.12,11.24l45.72,72.29h-30.57c-2.95,0-5.45-.63-7.51-1.9-2.07-1.26-3.81-3.07-5.24-5.41l-38.4-62.68c-1.43-2.34-3.01-4.01-4.74-5.01-1.73-.99-4.28-1.49-7.64-1.49h-14.53.02ZM1497.71,269.58h21.22c6.4,0,11.98-.86,16.74-2.57,4.76-1.71,8.67-4.08,11.75-7.11,3.07-3.03,5.37-6.61,6.88-10.76,1.52-4.15,2.27-8.71,2.27-13.67,0-9.93-3.05-17.55-9.16-22.88-6.11-5.32-15.43-7.99-27.98-7.99h-21.73v64.98h.01Z"/>
    <path class="st7" d="M1723.74,299.98c1.22,3.11,2.42,6.25,3.6,9.41,1.18-3.25,2.4-6.45,3.67-9.61,1.26-3.16,2.61-6.18,4.04-9.07l54.06-108.44c.67-1.35,1.37-2.44,2.08-3.25.72-.81,1.52-1.4,2.4-1.76s1.87-.59,2.97-.68,2.4-.14,3.92-.14h25.64v195.76h-29.93v-126.45c0-2.34.06-4.92.19-7.72.13-2.8.32-5.64.57-8.53l-55.19,111.01c-1.26,2.53-2.91,4.49-4.93,5.89-2.02,1.4-4.38,2.1-7.07,2.1h-4.67c-2.7,0-5.05-.7-7.07-2.1-2.02-1.4-3.67-3.36-4.93-5.89l-55.95-111.42c.33,2.98.57,5.89.69,8.73.13,2.84.19,5.48.19,7.92v126.45h-29.93v-195.75h25.64c1.52,0,2.82.05,3.92.14,1.09.09,2.08.32,2.97.68.89.36,1.71.95,2.46,1.76s1.47,1.89,2.15,3.25l54.56,108.71c1.43,2.89,2.76,5.89,3.98,9h-.03Z"/>
  </g>
  <g class="st3">
    <text class="st4" transform="translate(510.85 155.28) scale(.96 1)"><tspan x="0" y="0">N</tspan></text>
    <text class="st2" transform="translate(604.59 155.28) scale(.96 1)"><tspan x="0" y="0">A</tspan></text>
    <text class="st4" transform="translate(678.77 155.28) scale(.96 1)"><tspan x="0" y="0">T</tspan></text>
    <text class="st4" transform="translate(751.52 155.28) scale(.96 1)"><tspan x="0" y="0">ION</tspan></text>
    <text class="st4" transform="translate(975.48 155.28) scale(.96 1)"><tspan x="0" y="0">A</tspan></text>
    <text class="st4" transform="translate(1058.38 155.28) scale(.96 1)"><tspan x="0" y="0">L R</tspan></text>
    <text class="st5" transform="translate(1249.06 155.28) scale(.96 1)"><tspan x="0" y="0">E</tspan></text>
    <text class="st4" transform="translate(1327.68 155.28) scale(.96 1)"><tspan x="0" y="0">S</tspan></text>
    <text class="st6" transform="translate(1407.9 155.28) scale(.96 1)"><tspan x="0" y="0">E</tspan></text>
    <text class="st4" transform="translate(1488.84 155.28) scale(.96 1)"><tspan x="0" y="0">A</tspan></text>
    <text class="st4" transform="translate(1571.74 155.28) scale(.96 1)"><tspan x="0" y="0">R</tspan></text>
    <text class="st4" transform="translate(1658.18 155.28) scale(.96 1)"><tspan x="0" y="0">C</tspan></text>
    <text class="st4" transform="translate(1740.54 155.28) scale(.96 1)"><tspan x="0" y="0">H</tspan></text>
  </g>
  <line class="st1" x1="116.08" y1="199.78" x2=".41" y2="31.38"/>
  <line class="st1" x1="169.92" y1="368.18" x2="51.92" y2="183.25"/>
  <line class="st1" x1="51.92" y1="183.25" x2="5.85" y2="370.8"/>
  <line class="st1" x1="178.83" y1="29.4" x2="231.19" y2="182.19"/>
  <line class="st1" x1="231.19" y1="230.69" x2="178.83" y2="368.93"/>
  <line class="st1" x1="345.05" y1="29.4" x2="398.05" y2="188.94"/>
  <line class="st1" x1="396.35" y1="241.36" x2="345.05" y2="370.8"/>
  <line class="st1" x1="334.47" y1="370.04" x2="277.68" y2="248.5"/>
</svg>